<svg id="Layer_1" data-name="Layer 1" xmlns="http://www.w3.org/2000/svg" viewBox="0 0 512 512"><defs><style>.cls-1{fill:#ffd38d;}.cls-2{fill:#6d4135;}.cls-3{opacity:0.1;}</style></defs><title>bag-flat</title><path class="cls-1" d="M476.06,505.14A20.12,20.12,0,0,1,460.8,512H51.2a20.12,20.12,0,0,1-15.26-6.86,20.85,20.85,0,0,1-5.12-16L71.78,141a20.57,20.57,0,0,1,20.38-18.12H419.84A20.57,20.57,0,0,1,440.22,141l41,348.16A20.85,20.85,0,0,1,476.06,505.14Z"/><path class="cls-2" d="M358.4,102.4V225.28a20.48,20.48,0,1,1-41,0V102.4a61.44,61.44,0,0,0-122.88,0V225.28a20.48,20.48,0,1,1-41,0V102.4a102.4,102.4,0,1,1,204.8,0Z"/><g class="cls-3"><path d="M476.06,505.14A20.12,20.12,0,0,1,460.8,512H256V122.88h61.44V102.4A61.49,61.49,0,0,0,256,41V0A102.57,102.57,0,0,1,358.4,102.4v20.48h61.44A20.57,20.57,0,0,1,440.22,141l41,348.16A20.85,20.85,0,0,1,476.06,505.14Z"/></g></svg>